<?xml version="1.0" encoding="utf-8"?>
<!-- Generator: Adobe Illustrator 24.0.1, SVG Export Plug-In . SVG Version: 6.00 Build 0)  -->
<svg version="1.1" xmlns="http://www.w3.org/2000/svg" xmlns:xlink="http://www.w3.org/1999/xlink" x="0px" y="0px"
	 viewBox="0 0 500 500" style="enable-background:new 0 0 500 500;" xml:space="preserve">
<style type="text/css">
	.st0{fill:#121212;}
	.st1{fill:#999999;}
</style>
<g id="bg">
	<g>
		<rect x="0.5" y="0.5" class="st0" width="499" height="499"/>
		<path d="M499,1v498H1V1H499 M500,0H0v500h500V0L500,0z"/>
	</g>
</g>
<g id="Слой_2">
	<g>
		<path class="st1" d="M167.8,315.7V170.6h145.1l23.7-23.7c-0.8-0.1-1.6-0.1-2.5-0.1H167.8c-13.1,0-23.8,10.7-23.8,23.8v166.8
			c0,0.7,0,1.3,0.1,2L167.8,315.7z"/>
		<path class="st1" d="M334.1,191.8v145.6H188.5L164.8,361c1,0.1,1.9,0.2,2.9,0.2h166.3c13.1,0,23.8-10.7,23.8-23.8V170.6
			c0-0.8,0-1.6-0.1-2.4L334.1,191.8z"/>
		<polygon class="st1" points="322.2,313.5 286.5,251.6 261.1,293.1 250.8,275.1 212.3,313.5 		"/>
		<path class="st1" d="M191.8,291.6l43.5-43.5l-9.8-17.1C225.5,231,205,267.9,191.8,291.6z"/>
	</g>
</g>
<g id="Слой_3">
	<path class="st1" d="M357,133.3l-226,226c-4,4-4,10.4,0,14.4l0,0c4,4,10.4,4,14.4,0l226-226c4-4,4-10.4,0-14.4v0
		C367.4,129.3,360.9,129.3,357,133.3z"/>
</g>
</svg>
